<svg width="16" height="13" viewBox="0 0 16 13" fill="none" xmlns="http://www.w3.org/2000/svg">
<path d="M14.75 0.875H1.25C0.951631 0.875 0.665483 0.993526 0.454505 1.2045C0.243526 1.41548 0.125 1.70163 0.125 2V11C0.125 11.2984 0.243526 11.5845 0.454505 11.7955C0.665483 12.0065 0.951631 12.125 1.25 12.125H14.75C15.0484 12.125 15.3345 12.0065 15.5455 11.7955C15.7565 11.5845 15.875 11.2984 15.875 11V2C15.875 1.70163 15.7565 1.41548 15.5455 1.2045C15.3345 0.993526 15.0484 0.875 14.75 0.875ZM13.5125 2L8 5.81375L2.4875 2H13.5125ZM1.25 11V2.51187L7.67938 6.96125C7.77354 7.02657 7.8854 7.06158 8 7.06157C8.1146 7.06158 8.22647 7.02657 8.32063 6.96125L14.75 2.51187V11H1.25Z" fill="#636262"/>
</svg>
