<svg width="32" height="32" viewBox="0 0 32 32" fill="none" xmlns="http://www.w3.org/2000/svg">
<path fill-rule="evenodd" clip-rule="evenodd" d="M16.511 2.00001C13.0659 1.99739 9.73248 3.22149 7.10779 5.45302C4.48311 7.68454 2.73872 10.7777 2.18711 14.1783C1.63549 17.579 2.31271 21.0649 4.09743 24.0117C5.88215 26.9585 8.65776 29.1735 11.927 30.26C12.653 30.392 12.917 29.944 12.917 29.56C12.917 29.216 12.905 28.304 12.897 27.094C8.86504 27.97 8.01304 25.15 8.01304 25.15C7.35304 23.474 6.40304 23.03 6.40304 23.03C5.08704 22.13 6.50304 22.148 6.50304 22.148C7.95904 22.25 8.72304 23.642 8.72304 23.642C10.017 25.858 12.117 25.218 12.943 24.846C13.075 23.91 13.451 23.27 13.863 22.908C10.643 22.542 7.25904 21.298 7.25904 15.742C7.2381 14.3014 7.77318 12.9082 8.75304 11.852C8.60304 11.484 8.10504 10.012 8.89304 8.01201C8.89304 8.01201 10.113 7.62401 12.881 9.50001C14.0643 9.17824 15.2848 9.01415 16.511 9.01201C17.7372 9.01431 18.9578 9.1784 20.141 9.50001C22.909 7.62401 24.125 8.01401 24.125 8.01401C24.917 10.01 24.419 11.484 24.269 11.852C25.199 12.866 25.759 14.158 25.759 15.742C25.759 21.312 22.369 22.538 19.139 22.896C19.659 23.344 20.123 24.23 20.123 25.582C20.123 27.522 20.105 29.084 20.105 29.56C20.105 29.948 20.367 30.4 21.103 30.258C24.3716 29.1701 27.1462 26.9541 28.9296 24.0068C30.7131 21.0595 31.3889 17.5735 30.8361 14.1732C30.2833 10.773 28.538 7.68062 25.9128 5.45005C23.2876 3.21948 19.9559 1.99644 16.511 2.00001Z" fill="#1C1C1C"/>
</svg>
