<svg width="22" height="22" viewBox="0 0 22 22" fill="none" xmlns="http://www.w3.org/2000/svg">
<path d="M11 14C11.8333 14 12.5417 13.7083 13.125 13.125C13.7083 12.5417 14 11.8333 14 11C14 10.1667 13.7083 9.45833 13.125 8.875C12.5417 8.29167 11.8333 8 11 8C10.1667 8 9.45833 8.29167 8.875 8.875C8.29167 9.45833 8 10.1667 8 11C8 11.8333 8.29167 12.5417 8.875 13.125C9.45833 13.7083 10.1667 14 11 14ZM11 16C9.61667 16 8.43767 15.5123 7.463 14.537C6.48767 13.5623 6 12.3833 6 11C6 9.61667 6.48767 8.43733 7.463 7.462C8.43767 6.48733 9.61667 6 11 6C12.3833 6 13.5627 6.48733 14.538 7.462C15.5127 8.43733 16 9.61667 16 11C16 12.3833 15.5127 13.5623 14.538 14.537C13.5627 15.5123 12.3833 16 11 16ZM0 12V10H4V12H0ZM18 12V10H22V12H18ZM10 4V0H12V4H10ZM10 22V18H12V22H10ZM5.35 6.75L2.875 4.275L4.275 2.875L6.75 5.35L5.35 6.75ZM17.725 19.125L15.25 16.65L16.65 15.25L19.125 17.725L17.725 19.125ZM16.65 6.75L15.25 5.35L17.725 2.875L19.125 4.275L16.65 6.75ZM4.275 19.125L2.875 17.725L5.35 15.25L6.75 16.65L4.275 19.125Z" fill="#3860F9"/>
</svg>
